<svg xmlns="http://www.w3.org/2000/svg" xmlns:xlink="http://www.w3.org/1999/xlink" version="1.1" width="256" height="256" viewBox="0 0 256 256" xml:space="preserve">
<g style="stroke: none; stroke-width: 0; stroke-dasharray: none; stroke-linecap: butt; stroke-linejoin: miter; stroke-miterlimit: 10; fill: none; fill-rule: nonzero; opacity: 1;" transform="translate(1.4065934065934016 1.4065934065934016) scale(2.81 2.81)">
	<circle cx="36.528000000000006" cy="36.528000000000006" r="32.048" style="stroke: none; stroke-width: 1; stroke-dasharray: none; stroke-linecap: butt; stroke-linejoin: miter; stroke-miterlimit: 10; fill: rgb(64,216,219); fill-rule: nonzero; opacity: 1;" transform="  matrix(1 0 0 1 0 0) "/>
	<path d="M 88.681 82.317 L 65.355 58.99 c 11.179 -14.328 10.193 -35.13 -2.979 -48.303 c -14.251 -14.25 -37.438 -14.249 -51.688 0 c -14.25 14.25 -14.25 37.437 0 51.688 c 7.125 7.125 16.485 10.688 25.844 10.688 c 7.944 0 15.881 -2.576 22.459 -7.708 l 23.326 23.326 C 83.195 89.56 84.348 90 85.499 90 c 1.152 0 2.304 -0.44 3.182 -1.319 C 90.44 86.924 90.44 84.074 88.681 82.317 z M 17.053 56.011 c -10.741 -10.741 -10.741 -28.218 0 -38.958 c 5.37 -5.37 12.424 -8.056 19.479 -8.056 c 7.054 0 14.108 2.686 19.479 8.056 c 10.739 10.74 10.739 28.217 0 38.958 C 45.27 66.75 27.793 66.75 17.053 56.011 z" style="stroke: none; stroke-width: 1; stroke-dasharray: none; stroke-linecap: butt; stroke-linejoin: miter; stroke-miterlimit: 10; fill: rgb(229,65,65); fill-rule: nonzero; opacity: 1;" transform=" matrix(1 0 0 1 0 0) " stroke-linecap="round"/>
	<circle cx="23.281" cy="23.281" r="5.971" style="stroke: none; stroke-width: 1; stroke-dasharray: none; stroke-linecap: butt; stroke-linejoin: miter; stroke-miterlimit: 10; fill: rgb(71,234,234); fill-rule: nonzero; opacity: 1;" transform="  matrix(1 0 0 1 0 0) "/>
	<circle cx="33.684" cy="33.684" r="3.354" style="stroke: none; stroke-width: 1; stroke-dasharray: none; stroke-linecap: butt; stroke-linejoin: miter; stroke-miterlimit: 10; fill: rgb(71,234,234); fill-rule: nonzero; opacity: 1;" transform="  matrix(1 0 0 1 0 0) "/>
</g>
</svg>